<svg xmlns="http://www.w3.org/2000/svg" width="24" height="24" viewBox="0 0 24 24" fill="none" stroke="currentColor" stroke-width="2" stroke-linecap="round" stroke-linejoin="round" class="lucide lucide-sparkles"><path d="M9.9 10.8c-.4.7-.7 1.4-.7 2.2 0 2.8 2.2 5 5 5 .8 0 1.5-.2 2.2-.7"/><path d="M19 22l2-2"/><path d="M17.5 17.5l1 1"/><path d="M13.5 10.5l1 1"/><path d="M10 14l-2 2"/><path d="M2 2l2 2"/><path d="M3.5 7.5l1 1"/><path d="M7.5 3.5l1 1"/><path d="M10 2l2 2"/><path d="M14 2l-2 2"/><path d="M22 10l-2 2"/><path d="M22 14l-2-2"/><path d="M12 22l2-2"/><path d="M12 18l-2 2"/></svg>
